<svg xmlns="http://www.w3.org/2000/svg" xmlns:xlink="http://www.w3.org/1999/xlink" width="1024" height="1024">
	
	
	<path fill="url(#gradient_3)" d="M469.13 109.211C516.891 102.428 567.257 107.655 612.966 122.828C620.833 125.44 629.928 128.081 637.132 132.19C643.079 133.642 649.912 137.656 655.376 140.42C686.37 156.096 714.064 176.62 738.07 201.747C758.581 222.864 775.137 247.493 788.987 273.394C799.374 292.817 808.426 313.382 814.043 334.721C816.627 345.189 819.404 355.682 821.276 366.305C828.621 407.964 827.329 450.14 818.457 491.417C811.901 521.992 800.63 552.204 785.248 579.455C782.043 585.133 778.643 590.742 775.083 596.206C773.209 599.083 770.988 601.907 769.334 604.901L769.317 605.694C769.266 606.592 769.176 606.91 768.731 607.649C768.966 608.862 768.933 609.526 769.75 610.5L770.438 610.512L770.767 610.708C768.173 612.198 765.125 614.355 762.206 614.941L761.804 615.386C758.127 619.518 754.968 624.097 751.438 628.356C743.053 638.472 733.333 649.18 722.927 657.252C724.906 648.34 726.669 639.58 727.343 630.459C727.951 622.214 727.452 613.592 727.444 605.295C727.429 588.697 727.392 572.098 727.384 555.5C727.364 512.281 727.416 469.062 727.362 425.843C727.333 402.507 727.234 379.17 727.241 355.834C727.245 343.589 728.302 330.498 726.823 318.373C724.864 302.32 718.961 286.193 710.33 272.523C701.941 259.236 689.91 248.135 676.682 239.769C667.638 234.049 657.754 230.212 647.887 226.182C638.368 222.294 628.89 218.283 619.426 214.263C605.795 208.473 592.186 202.577 578.63 196.616C560.469 188.631 542.486 180.762 523 176.508C502.775 172.094 483.462 172.758 463.455 177.876C453.181 180.504 442.827 184.29 433.903 190.107C422.237 197.71 411.308 206.757 399.989 214.901C388.243 223.351 376.588 231.935 364.819 240.35C351.237 250.061 337.132 258.716 326.069 271.45C313.076 286.404 303.564 305.325 299.504 324.75C296.127 340.902 296.964 357.266 296.967 373.666C296.971 391.65 296.987 409.634 296.992 427.618C297.005 474.905 297.018 522.191 297.024 569.477C297.027 599.79 297.417 630.174 296.495 660.474C290.674 656.204 285.051 650.101 280.239 644.714C270.244 633.527 261.632 621.847 253.22 609.447L239.343 586.815L215.867 535.218C204.055 501.648 197.961 468.219 196.657 432.664C195.875 412.51 197.808 392.235 200.994 372.359C206.206 339.836 214.984 308.673 229.805 279.12L262.517 227.635C311.991 163.215 388.814 119.865 469.13 109.211Z"/>
	<path fill="#3D1758" d="M296.495 660.474C297.417 630.174 297.027 599.79 297.024 569.477C297.018 522.191 297.005 474.905 296.992 427.618C296.987 409.634 296.971 391.65 296.967 373.666C296.964 357.266 296.127 340.902 299.504 324.75C303.564 305.325 313.076 286.404 326.069 271.45C337.132 258.716 351.237 250.061 364.819 240.35C376.588 231.935 388.243 223.351 399.989 214.901C411.308 206.757 422.237 197.71 433.903 190.107C442.827 184.29 453.181 180.504 463.455 177.876C483.462 172.758 502.775 172.094 523 176.508C542.486 180.762 560.469 188.631 578.63 196.616C592.186 202.577 605.795 208.473 619.426 214.263C628.89 218.283 638.368 222.294 647.887 226.182C657.754 230.212 667.638 234.049 676.682 239.769C689.91 248.135 701.941 259.236 710.33 272.523C718.961 286.193 724.864 302.32 726.823 318.373C728.302 330.498 727.245 343.589 727.241 355.834C727.234 379.17 727.333 402.507 727.362 425.843C727.416 469.062 727.364 512.281 727.384 555.5C727.392 572.098 727.429 588.697 727.444 605.295C727.452 613.592 727.951 622.214 727.343 630.459C726.669 639.58 724.906 648.34 722.927 657.252L711.817 686.622C706.346 696.165 700.574 705.503 693.131 713.653C684.643 722.948 675.125 729.086 665.018 736.311C654.67 743.71 644.474 751.311 634.077 758.647C626.745 763.82 618.988 768.65 611.999 774.28L576.046 799.86C567.745 805.619 559.334 811.109 550.031 815.136C540.792 819.135 531.055 821.317 521.122 822.722C505.759 824.896 489.276 823.785 474.297 819.805C454.395 814.519 435.61 804.836 416.495 797.302L367.118 776.558C359.959 774.075 353.887 769.721 347.28 766.162L339.867 760.743L339.384 760.292C317.9 740.189 302.148 716.061 297.779 686.479C296.818 679.978 296.767 673.366 296.553 666.809L296.495 660.474Z"/>
	<path fill="#2B9F8F" d="M310.656 558.707L329.815 566.731C329.811 569.278 330.224 572.938 329.491 575.322L311.057 568.467L310.651 567.642L310.656 558.707Z"/>
	<path fill="#AB3958" d="M582.737 415.294L657.571 360.851L657.6 410.206L582.534 460.327L582.737 415.294Z"/>
	<path fill="#EF6460" d="M657.6 410.206L657.626 428.326L657.71 451.832C657.923 455.955 657.94 460.06 657.919 464.187C657.908 466.35 658.125 468.8 657.684 470.918C652.265 474.388 646.718 477.63 641.349 481.18C634.002 486.037 585.925 519.396 582.582 520.066L582.574 501.833L582.528 478.465L582.534 460.327L657.6 410.206Z"/>
	<path fill="#FEFEFD" d="M657.6 410.206L657.626 428.326L582.528 478.465L582.534 460.327L657.6 410.206Z"/>
	<path fill="#FEFEFD" d="M657.71 451.832C657.923 455.955 657.94 460.06 657.919 464.187C657.908 466.35 658.125 468.8 657.684 470.918C652.265 474.388 646.718 477.63 641.349 481.18C634.002 486.037 585.925 519.396 582.582 520.066L582.574 501.833C590.504 497.032 598.015 491.664 605.694 486.487C615.764 479.699 625.932 473.053 635.989 466.243C643.062 461.454 650.082 455.662 657.71 451.832Z"/>
	<path fill="#EF6460" d="M657.684 470.918L657.283 540.288L583.014 589.143L582.582 520.066C585.925 519.396 634.002 486.037 641.349 481.18C646.718 477.63 652.265 474.388 657.684 470.918Z"/>
	<path fill="#2B9F8F" d="M310.651 567.642L311.057 568.467C311.07 592.647 310.931 616.825 310.842 641.005C310.814 648.611 310.815 656.216 310.887 663.822C310.923 667.594 310.649 671.625 311.25 675.336L311.699 675.762C312.71 676.995 312.841 678.862 313.345 680.352C314.335 683.274 315.368 686.215 316.477 689.094C319.447 696.802 324.412 705.373 330.08 711.409C336.077 717.796 342.596 723.11 350.276 727.342C358.683 731.976 368.408 734.631 377.283 738.338C391.324 744.202 405.499 749.777 419.508 755.706C429.689 760.016 439.889 764.248 450.192 768.263C458.214 771.389 466.014 774.49 474.522 776.073C494.674 779.821 517.811 773.519 535.612 764.048C544.779 759.17 553.434 753.128 561.934 747.181L564.906 745.015C565.018 760.282 566.71 774.985 558.759 788.75C556.57 792.539 553.143 795.672 551.144 799.403C538.243 807.334 522.806 810.568 507.782 810.589C498.137 810.601 488.432 810.168 479.047 807.737C460.733 802.995 443.137 793.906 425.636 786.762C410.508 780.586 395.446 774.343 380.437 767.875C373.335 764.814 365.992 762.203 359.25 758.376C352.09 754.312 345.432 748.759 339.629 742.944C323.197 726.481 312.945 704.531 310.713 681.336C310.19 675.906 310.481 670.195 310.489 664.734C310.503 655.166 310.518 645.599 310.532 636.031C310.564 613.235 310.612 590.439 310.651 567.642Z"/>
	<path fill="#256B76" d="M704.188 290.123C709.475 299.246 712.219 311.717 713.707 322.069C714.623 328.441 714.038 335.476 714.038 341.93C714.038 354.235 714.038 366.539 714.038 378.844C714.038 417.31 714.628 455.87 714.111 494.326C711.982 497.794 708.813 500.658 705.937 503.512C694.879 514.49 682.681 522.933 669.538 531.196L669.454 530.351C668.894 524.36 669.088 518.266 669.067 512.25C669.033 502.548 669.015 492.847 668.998 483.146C668.942 452.752 668.915 422.358 668.855 391.965C668.838 383.428 668.76 374.885 668.828 366.348C668.859 362.363 669.477 357.707 668.862 353.802C668.462 351.265 666.776 348.855 664.894 347.196C663.311 345.802 660.521 344.435 658.367 344.601C657.126 344.697 655.956 345.144 654.88 345.75C648.233 349.498 642.074 354.903 635.833 359.327C618.435 371.66 601.288 384.319 584.016 396.826C579.395 400.172 574.988 403.84 570.307 407.083C571.187 403.858 573.148 401.2 575.113 398.555C582.906 388.066 595.104 379.933 605.587 372.231C623.736 358.898 641.978 345.68 660.198 332.438C672.035 323.835 684.972 315.979 695.008 305.228C699.11 300.834 701.83 295.596 704.188 290.123Z"/>
	<defs>
		<linearGradient id="gradient_4" gradientUnits="userSpaceOnUse" x1="470.13528" y1="459.40298" x2="723.22186" y2="419.08878">
			<stop offset="0" stop-color="#299787"/>
			<stop offset="1" stop-color="#3EC1A4"/>
		</linearGradient>
	</defs>
	<path fill="url(#gradient_4)" d="M675.169 255.554C678.143 256.872 680.685 259.359 683.119 261.504C691.947 269.279 699.742 279.141 704.188 290.123C701.83 295.596 699.11 300.834 695.008 305.228C684.972 315.979 672.035 323.835 660.198 332.438C641.978 345.68 623.736 358.898 605.587 372.231C595.104 379.933 582.906 388.066 575.113 398.555C573.148 401.2 571.187 403.858 570.307 407.083C568.79 410.608 567.493 413.928 567.18 417.806C566.614 424.814 567.056 432.212 567.054 439.268C567.05 453.487 567.06 467.705 567.071 481.924C567.101 522.351 566.751 562.803 567.129 603.227C554.182 611.313 539.88 616.001 524.752 617.753C514.829 618.902 504.267 618.23 494.42 616.827L494.514 406.5L495.834 405.822C516.489 406.766 536.081 402.103 553.385 390.577C561.665 385.062 569.505 378.941 577.526 373.066C594.536 360.606 611.417 347.957 628.508 335.609C637.881 328.839 647.343 322.186 656.802 315.536C662.441 311.572 668.855 307.756 673.75 302.905C679.131 297.572 683.279 290.224 684.694 282.75C686.835 271.445 680.967 264.244 675.169 255.554Z"/>
	<path fill="#256B76" d="M564.327 619.664C567.905 617.716 571.551 616.014 575 613.819C578.513 611.584 581.598 608.735 584.99 606.327C593.444 600.327 602.036 594.443 610.626 588.638C629.927 575.593 648.832 562.104 667.85 548.656C683.8 537.377 699.743 526.833 714.406 513.844C714.597 536.584 714.08 559.355 714.079 582.104C714.078 592.985 714.111 603.867 714.128 614.748C714.137 620.742 714.435 626.885 713.981 632.853C711.895 660.305 699.02 689.038 679.625 708.586C671.559 716.715 661.325 722.956 652.037 729.612C634.86 741.921 617.561 754.052 600.249 766.17C590.656 772.885 581.186 779.785 571.592 786.507C565.071 791.076 558.427 796.152 551.144 799.403C553.143 795.672 556.57 792.539 558.759 788.75C566.71 774.985 565.018 760.282 564.906 745.015C564.932 718.437 564.65 691.851 564.564 665.273C564.539 657.689 564.521 650.106 564.486 642.523C564.467 638.515 564.857 633.987 564.068 630.081L564.403 629.923L564.327 619.664Z"/>
	<path fill="#2B9F8F" d="M564.403 629.923C569.63 628.721 574.622 626.419 579.291 623.805C587.935 618.966 596.193 612.929 604.421 607.4C616.399 599.349 628.448 591.394 640.5 583.454C648.961 577.88 657.666 572.696 666.138 567.148C670.187 564.495 674.689 561.861 678.326 558.67C678.362 571.478 678.392 584.286 678.41 597.094C678.422 606.137 678.877 615.582 677.545 624.536C674.109 647.631 661.542 670.65 645.07 687.074C634.189 697.923 620.667 706.002 608.168 714.825C593.796 724.97 579.648 735.407 564.906 745.015C564.932 718.437 564.65 691.851 564.564 665.273C564.539 657.689 564.521 650.106 564.486 642.523C564.467 638.515 564.857 633.987 564.068 630.081L564.403 629.923Z"/>
	<path fill="#57D2AE" d="M329.815 566.731C358.896 578.998 388.428 590.244 417.701 602.047C431.861 607.756 446.033 613.469 460.29 618.931C471.396 623.187 483.211 628.131 495.02 629.929C519.162 633.189 542.092 629.372 564.327 619.664L564.403 629.923L564.068 630.081C564.857 633.987 564.467 638.515 564.486 642.523C564.521 650.106 564.539 657.689 564.564 665.273C564.65 691.851 564.932 718.437 564.906 745.015L561.934 747.181C553.434 753.128 544.779 759.17 535.612 764.048C517.811 773.519 494.674 779.821 474.522 776.073C466.014 774.49 458.214 771.389 450.192 768.263C439.889 764.248 429.689 760.016 419.508 755.706C405.499 749.777 391.324 744.202 377.283 738.338C368.408 734.631 358.683 731.976 350.276 727.342C342.596 723.11 336.077 717.796 330.08 711.409C324.412 705.373 319.447 696.802 316.477 689.094C315.368 686.215 314.335 683.274 313.345 680.352C312.841 678.862 312.71 676.995 311.699 675.762L311.25 675.336C310.649 671.625 310.923 667.594 310.887 663.822C310.815 656.216 310.814 648.611 310.842 641.005C310.931 616.825 311.07 592.647 311.057 568.467L329.491 575.322C330.224 572.938 329.811 569.278 329.815 566.731Z"/>
	<path fill="#2B9F8F" d="M495.02 629.929C519.162 633.189 542.092 629.372 564.327 619.664L564.403 629.923L564.068 630.081C548.511 635.502 532.576 639.98 516 640.435C508.865 640.631 501.973 639.866 494.929 638.845L495.02 629.929Z"/>
	<path fill="#A5EFD0" d="M330.485 575.724C347.814 582.855 365.291 589.585 382.686 596.545C402.546 604.49 422.269 612.656 442.251 620.304C450.619 623.506 459.026 626.606 467.393 629.811C476.464 633.286 485.135 636.769 494.655 638.877C494.465 655.907 494.656 672.95 494.679 689.982C494.686 695.361 494.694 700.74 494.69 706.119C494.686 710.401 494.814 714.968 493.756 719.136L493.521 720C491.075 729.412 486.299 737.349 478.25 742.998C470.404 748.504 460.461 749.181 451.303 747.369C444.505 746.023 437.905 742.991 431.565 740.269C424.711 737.325 417.832 734.416 410.937 731.569C402.536 728.1 394.187 724.499 385.763 721.09C376.954 717.527 367.797 714.473 359.766 709.307C352.714 704.772 346.462 698.288 341.815 691.333C337.13 684.321 333.513 676.829 331.497 668.615C330.731 665.494 330.162 662.377 329.995 659.163C328.924 638.609 329.898 617.669 329.878 597.061C329.874 593.353 328.925 578.287 330.485 575.724Z"/>
	<path fill="#57D2AE" d="M310.982 544.97C310.748 497.345 310.89 449.723 310.728 402.1C310.679 388.025 310.6 373.95 310.533 359.875C310.495 351.967 309.853 343.511 310.856 335.673C312.362 323.903 316.214 312.632 321.894 302.229L321.879 302.775C321.785 305.286 321.03 307.393 320.644 309.824C319.994 313.917 320.56 318.471 321.405 322.5L321.591 323.434C323.616 333.279 329.626 340.767 337.966 346.138C345.517 351.002 354.657 353.887 362.944 357.325C376.171 362.813 389.339 368.414 402.597 373.833C416.395 379.472 430.152 385.262 443.928 390.962C452.988 394.711 462.088 398.753 471.458 401.653C479.634 404.184 487.453 404.661 495.834 405.822L494.514 406.5L494.42 616.827C490.075 615.422 485.659 614.38 481.321 612.884C455.717 604.053 430.582 593.294 405.5 583.082C374.039 570.273 342.421 557.843 310.982 544.97Z"/>
	<path fill="#256B76" d="M465.75 529.541C465.895 534.895 466.034 541.996 462.192 546.191C459.886 548.711 457.576 549.708 454.165 549.768C446.794 549.898 439.297 545.871 432.662 543.056L432.543 531.973C438.348 534.943 447.402 539.555 453.93 538.462C459.379 537.549 462.659 533.752 465.75 529.541Z"/>
	<path fill="#256B76" d="M387.826 546.411C394.288 551.515 411.232 560.044 419.223 558.814C424.743 557.965 427.921 553.9 430.834 549.604L431.467 548.648L431.419 554.783C431.01 559.9 430.094 563.592 425.866 566.974C423.542 568.833 421.079 569.833 418.08 569.482C414.935 569.113 411.615 567.757 408.632 566.733C402.237 564.537 394.403 562.295 390.18 556.701C387.775 553.516 387.265 550.347 387.826 546.411Z"/>
	<path fill="#3D1758" d="M380.745 456.449C380.758 448.959 379.293 439.305 384.797 433.421C387.319 430.725 392.565 428.596 396.237 428.634C399.164 428.664 402.985 430.688 405.679 431.797C413.053 434.835 421.324 437.461 426.414 444.004C434.259 454.088 432.513 465.56 432.46 477.561C445.044 483.801 460.059 486.113 465.322 500.778C466.585 504.296 466.235 508.563 466.267 512.255C466.318 518.008 466.55 523.83 465.75 529.541C462.659 533.752 459.379 537.549 453.93 538.462C447.402 539.555 438.348 534.943 432.543 531.973L432.662 543.056L431.467 548.648L430.834 549.604C427.921 553.9 424.743 557.965 419.223 558.814C411.232 560.044 394.288 551.515 387.826 546.411C380.959 539.112 380.161 529.444 380.155 519.992L371.511 516.822C364.049 513.856 356.86 507.57 353.58 500.09C347.729 492.076 347.031 485.55 347.06 475.899C347.07 472.673 346.938 469.224 347.502 466.042C348.392 461.013 350.667 457.039 354.937 454.106C358.752 451.485 362.71 450.408 367.32 451.365C371.877 452.312 376.468 454.638 380.745 456.449Z"/>
	<path fill="#2B9F8F" d="M353.58 500.09C361.717 505.624 371.231 508.741 380.44 512.061L380.155 519.992L371.511 516.822C364.049 513.856 356.86 507.57 353.58 500.09Z"/>
	<path fill="#FEFEFD" d="M394.621 439.444L395.979 439.774C399.816 440.901 403.612 442.747 407.38 444.135C410.061 445.123 414 446.094 416.261 447.765C424.237 453.658 421.827 468.038 421.693 476.692C421.651 479.452 421.311 482.236 423.189 484.495C425.186 486.898 428.199 487.825 431 488.973C435.851 490.962 440.727 492.92 445.458 495.184C447.729 496.271 450.459 497.422 452.285 499.166C453.632 500.454 454.513 502.093 455.398 503.712C455.455 508.878 457.028 522.629 453.482 526.183C453.024 526.642 451.531 527.691 450.881 527.75C448.279 527.986 445.158 526.469 442.841 525.447C437.559 523.117 430.676 518.99 425 518.667C423.677 519.205 422.569 519.375 421.869 520.75C421.198 522.066 421.461 524.04 421.464 525.491C421.472 529.682 421.496 533.874 421.495 538.065C421.495 539.803 421.76 542.086 421.157 543.709C420.811 544.644 420.072 545.513 419.449 546.278L419.066 546.733L416.365 547.794C413.884 547.619 411.446 546.442 409.125 545.568C404.567 543.852 399.501 542.55 395.857 539.167C387.001 530.946 392.687 518.248 391.413 508C391.336 507.381 390.966 506.43 390.57 505.953C389.116 504.201 386.146 503.231 384.085 502.348C379.686 500.462 375.255 498.657 370.831 496.833C368.159 495.731 365.033 494.681 362.75 492.892C360.432 491.075 358.701 487.954 358.515 485C358.225 480.396 358.486 475.559 358.582 470.94C358.614 469.415 358.475 466.714 359.25 465.327C359.579 464.737 360.301 464.086 360.75 463.556C361.421 463.303 362.579 462.67 363.25 462.615C365.251 462.451 368.329 463.812 370.188 464.555C375.501 466.677 381.212 469.856 386.716 471.25C388.446 471.688 388.962 471.349 390.484 470.493C391.944 467.879 391.501 465.126 391.463 462.165C391.404 457.508 391.337 452.85 391.375 448.193C391.389 446.495 391.138 444.135 391.507 442.5C391.862 440.923 393.395 440.293 394.621 439.444Z"/>
	<path fill="#FEFEFD" d="M321.894 302.229C325.461 295.183 329.673 288.525 334.795 282.505C338.34 278.337 342.149 274.483 346.415 271.049C360.05 260.072 375.213 250.695 389.333 240.324C400.711 231.967 412.11 223.631 423.478 215.259C431.196 209.574 438.62 203.223 447.212 198.901C460.267 192.335 473.63 188.922 488.189 187.74C501.066 186.694 513.858 187.818 526.323 191.26C537.668 194.392 548.496 199.077 559.335 203.608C578.034 211.425 596.448 219.89 615.085 227.847C630.753 234.536 647.494 239.516 662.75 247.014C667.414 249.306 671.229 252.198 675.169 255.554C680.967 264.244 686.835 271.445 684.694 282.75C683.279 290.224 679.131 297.572 673.75 302.905C668.855 307.756 662.441 311.572 656.802 315.536C647.343 322.186 637.881 328.839 628.508 335.609C611.417 347.957 594.536 360.606 577.526 373.066C569.505 378.941 561.665 385.062 553.385 390.577C536.081 402.103 516.489 406.766 495.834 405.822C487.453 404.661 479.634 404.184 471.458 401.653C462.088 398.753 452.988 394.711 443.928 390.962C430.152 385.262 416.395 379.472 402.597 373.833C389.339 368.414 376.171 362.813 362.944 357.325C354.657 353.887 345.517 351.002 337.966 346.138C329.626 340.767 323.616 333.279 321.591 323.434L321.405 322.5C320.56 318.471 319.994 313.917 320.644 309.824C321.03 307.393 321.785 305.286 321.879 302.775L321.894 302.229Z"/>
	<path fill="#3D1758" d="M494.106 218.696C499.085 218.66 503.802 219.262 508.534 220.819C520.4 224.722 531.91 230.574 543.509 235.275C559.806 241.88 576.207 248.219 592.516 254.79C598.972 257.392 605.452 259.934 611.859 262.654C616.555 264.647 621.389 266.532 625.357 269.831C628.49 272.436 630.93 276.364 631.163 280.5C631.422 285.072 629.225 288.682 626.182 291.888C619.985 298.416 610.969 303.569 603.543 308.738C591.533 317.097 579.527 325.527 567.629 334.045C559.601 339.792 551.443 345.407 543.508 351.278C536.789 356.249 530.19 362.221 522.74 366.013C515.779 369.557 507.666 370.605 499.967 370.739C494.014 370.531 488.279 369.646 482.609 367.768C472.255 364.34 462.099 359.55 452.05 355.322C434.528 347.95 417.006 340.584 399.489 333.2C393.315 330.597 387.076 328.138 380.823 325.732C376.267 323.979 370.933 322.305 366.959 319.39C363.998 317.219 361.479 313.964 361.048 310.224C360.629 306.584 361.702 303.477 364.112 300.75C366.235 298.347 369.478 296.468 372.099 294.649C377.058 291.21 382.011 287.767 386.995 284.366C402.584 273.73 418.157 263.07 433.742 252.428C442.22 246.639 450.658 240.765 459.088 234.903C464.436 231.184 469.798 227.133 475.532 224.033C481.629 220.738 487.21 219.238 494.106 218.696Z"/>
	<path fill="#80E4EF" d="M394.063 320.202C389.642 318.401 385.201 316.648 380.79 314.822C378.429 313.845 375.361 312.796 373.421 311.096C372.483 310.275 372.416 309.674 372.351 308.491C374.336 305.971 377.461 304.262 380.11 302.481C384.416 299.584 388.739 296.713 393.035 293.802C406.594 284.615 420.184 275.44 433.677 266.159C444.347 258.82 454.999 251.434 465.614 244.018C470.135 240.859 474.484 237.416 479.094 234.389C481.17 233.026 483.364 231.688 485.692 230.803C497.13 226.457 505.464 231.51 515.695 236.015C509.397 241.552 502.156 246.34 495.355 251.261C479.388 262.818 463.11 273.801 446.832 284.903C434.847 293.076 422.974 301.34 410.878 309.357C405.295 313.057 399.975 317.025 394.063 320.202Z"/>
	<path fill="#1DCFDF" d="M515.695 236.015C539.082 245.753 562.622 255.062 586.119 264.531C595.601 268.352 606.041 271.448 615.112 276.085C617.19 277.146 618.395 278.161 619.428 280.25C619.445 282.518 619.432 283.607 617.735 285.338C612.283 290.9 603.787 295.393 597.359 299.843C583.021 309.769 568.637 319.763 554.48 329.946C546.949 335.362 539.486 340.834 532.103 346.452C527.962 349.603 523.828 353.505 519.25 355.952C513.136 359.222 504.908 360.23 498.075 360.056C494.606 359.968 491.291 359.207 488 358.149C474.85 353.922 461.857 347.609 449 342.476C436.817 337.613 424.67 332.684 412.521 327.738C406.406 325.249 400.017 323.012 394.063 320.202C399.975 317.025 405.295 313.057 410.878 309.357C422.974 301.34 434.847 293.076 446.832 284.903C463.11 273.801 479.388 262.818 495.355 251.261C502.156 246.34 509.397 241.552 515.695 236.015Z"/>
	<path fill="#FEFEFD" d="M537.751 263.667C543.59 263.317 549.903 264.701 554.975 267.626C559.649 270.321 561.786 273.601 563.206 278.701C562.768 280.911 562.182 282.911 560.819 284.75C556.753 290.237 548.839 291.916 542.447 292.707C536.179 293.296 528.884 292.028 523.726 288.322C520.665 286.123 517.545 282.941 517.059 279.024C516.761 276.623 517.561 273.981 519.071 272.089C523.64 266.365 530.822 264.515 537.751 263.667Z"/>
</svg>
