<svg width="1110" height="1267" viewBox="0 0 1110 1267" fill="none" xmlns="http://www.w3.org/2000/svg">
<path d="M176.707 978.305C178.332 924.816 177.645 871.179 177.639 817.667C177.629 734.193 177.606 650.719 177.583 567.243C177.574 535.495 177.546 503.748 177.539 472.001C177.534 443.05 176.058 414.162 182.01 385.649C189.166 351.358 205.93 317.957 228.829 291.559C248.326 269.079 273.185 253.8 297.122 236.658C317.864 221.802 338.405 206.649 359.107 191.732C379.055 177.356 398.317 161.385 418.877 147.963C434.605 137.694 452.853 131.011 470.96 126.372C506.221 117.337 540.258 116.165 575.903 123.957C610.246 131.466 641.939 145.358 673.947 159.454C697.838 169.977 721.823 180.385 745.846 190.606C762.526 197.702 779.23 204.783 796.006 211.647C813.396 218.761 830.816 225.534 846.755 235.632C870.068 250.4 891.272 269.997 906.057 293.453C921.268 317.584 931.672 346.053 935.125 374.392C937.731 395.796 935.868 418.906 935.861 440.522C935.849 481.717 936.023 522.914 936.075 564.109C936.17 640.404 936.078 716.699 936.113 792.994C936.127 822.294 936.193 851.596 936.219 880.897C936.233 895.544 937.113 910.764 936.041 925.319C934.853 941.42 931.746 956.884 928.258 972.617L908.678 1024.46C899.036 1041.31 888.863 1057.79 875.745 1072.18C860.786 1088.59 844.011 1099.43 826.198 1112.18C807.961 1125.24 789.991 1138.66 771.667 1151.61C758.745 1160.74 745.074 1169.27 732.757 1179.21L669.393 1224.36C654.763 1234.53 639.939 1244.22 623.543 1251.33C607.26 1258.39 590.1 1262.24 572.594 1264.72C545.518 1268.56 516.468 1266.6 490.068 1259.57C454.993 1250.24 421.886 1233.15 388.197 1219.85L301.174 1183.23C288.557 1178.85 277.856 1171.16 266.211 1164.88L253.147 1155.31L252.295 1154.51C214.432 1119.03 186.67 1076.43 178.97 1024.21C177.276 1012.74 177.186 1001.06 176.809 989.488L176.707 978.305Z" fill="#3D1758"/>
<path d="M201.666 798.656L235.432 812.821C235.425 817.317 236.153 823.778 234.861 827.986L202.373 815.885L201.657 814.429L201.666 798.656Z" fill="#2B9F8F"/>
<path d="M681.186 545.487L813.075 449.379L813.126 536.506L680.828 624.984L681.186 545.487Z" fill="#AB3958"/>
<path d="M813.129 536.506L813.175 568.494L813.323 609.989C813.699 617.267 813.729 624.514 813.692 631.799C813.672 635.618 814.055 639.943 813.278 643.682C803.727 649.807 793.951 655.53 784.488 661.797C771.54 670.371 686.808 729.26 680.916 730.443L680.902 698.256L680.821 657.004L680.832 624.985L813.129 536.506Z" fill="#EF6460"/>
<path d="M813.129 536.506L813.175 568.494L680.821 657.004L680.832 624.985L813.129 536.506Z" fill="#FEFEFD"/>
<path d="M813.324 609.988C813.7 617.266 813.73 624.513 813.693 631.798C813.673 635.617 814.056 639.941 813.279 643.68C803.728 649.806 793.952 655.529 784.489 661.796C771.541 670.37 686.809 729.259 680.917 730.442L680.903 698.255C694.879 689.78 708.117 680.303 721.65 671.164C739.398 659.182 757.318 647.449 775.043 635.428C787.508 626.974 799.881 616.749 813.324 609.988Z" fill="#FEFEFD"/>
<path d="M813.278 643.681L812.571 766.141L681.678 852.385L680.917 730.443C686.809 729.26 771.541 670.371 784.489 661.797C793.951 655.53 803.728 649.807 813.278 643.681Z" fill="#EF6460"/>
<path d="M201.66 814.429L202.376 815.885C202.399 858.57 202.154 901.252 201.997 943.937C201.947 957.364 201.949 970.789 202.076 984.216C202.139 990.875 201.657 997.99 202.716 1004.54L203.507 1005.29C205.289 1007.47 205.52 1010.77 206.408 1013.4C208.153 1018.55 209.973 1023.75 211.928 1028.83C217.162 1042.44 225.913 1057.57 235.902 1068.22C246.471 1079.5 257.961 1088.88 271.496 1096.35C286.313 1104.53 303.452 1109.22 319.093 1115.76C343.84 1126.11 368.822 1135.95 393.512 1146.42C411.455 1154.03 429.431 1161.5 447.59 1168.59C461.728 1174.1 475.475 1179.58 490.469 1182.37C525.985 1188.99 566.763 1177.86 598.135 1161.15C614.291 1152.53 629.545 1141.87 644.526 1131.37L649.764 1127.55C649.961 1154.5 652.943 1180.45 638.93 1204.75C635.072 1211.44 629.032 1216.97 625.509 1223.56C602.772 1237.56 575.566 1243.27 549.087 1243.3C532.089 1243.33 514.984 1242.56 498.444 1238.27C466.167 1229.9 435.156 1213.85 404.312 1201.24C377.65 1190.34 351.104 1179.32 324.652 1167.9C312.135 1162.5 299.194 1157.89 287.312 1151.13C274.693 1143.96 262.959 1134.16 252.731 1123.89C223.771 1094.83 205.703 1056.08 201.769 1015.13C200.848 1005.55 201.361 995.466 201.375 985.826C201.399 968.935 201.426 952.047 201.45 935.156C201.507 894.914 201.591 854.672 201.66 814.429Z" fill="#2B9F8F"/>
<path d="M895.233 324.522C904.551 340.627 909.387 362.642 912.01 380.917C913.624 392.165 912.593 404.584 912.593 415.977C912.593 437.699 912.593 459.42 912.593 481.142C912.593 549.046 913.633 617.116 912.722 685.003C908.97 691.125 903.385 696.181 898.316 701.219C878.827 720.598 857.329 735.503 834.166 750.09L834.018 748.598C833.031 738.022 833.373 727.264 833.336 716.644C833.276 699.517 833.244 682.392 833.214 665.267C833.115 611.612 833.068 557.957 832.962 504.304C832.932 489.234 832.795 474.153 832.914 459.083C832.969 452.048 834.058 443.829 832.974 436.935C832.269 432.457 829.298 428.202 825.981 425.274C823.191 422.813 818.274 420.4 814.478 420.693C812.291 420.862 810.229 421.651 808.332 422.721C796.617 429.337 785.763 438.879 774.763 446.688C744.101 468.46 713.881 490.807 683.44 512.886C675.296 518.792 667.529 525.267 659.279 530.992C660.83 525.299 664.286 520.607 667.749 515.938C681.484 497.422 702.982 483.064 721.457 469.468C753.443 445.931 785.593 422.597 817.705 399.221C838.566 384.034 861.367 370.166 879.054 351.187C886.284 343.43 891.078 334.184 895.233 324.522Z" fill="#256B76"/>
<path d="M844.092 263.497C849.334 265.824 853.814 270.214 858.104 274.001C873.662 287.726 887.4 305.136 895.236 324.522C891.08 334.184 886.286 343.43 879.057 351.187C861.369 370.166 838.569 384.034 817.707 399.221C785.596 422.597 753.446 445.931 721.46 469.468C702.984 483.064 681.486 497.421 667.752 515.938C664.289 520.607 660.833 525.299 659.282 530.992C656.608 537.215 654.322 543.076 653.771 549.922C652.773 562.293 653.552 575.353 653.549 587.809C653.541 612.91 653.559 638.009 653.578 663.11C653.631 734.476 653.015 805.886 653.681 877.246C630.863 891.521 605.657 899.796 578.995 902.889C561.506 904.917 542.892 903.731 525.537 901.255L525.703 529.963L528.029 528.766C564.432 530.433 598.961 522.201 629.458 501.854C644.051 492.118 657.868 481.313 672.005 470.942C701.983 448.946 731.735 426.617 761.856 404.819C778.375 392.868 795.051 381.123 811.722 369.384C821.66 362.386 832.964 355.65 841.591 347.086C851.075 337.672 858.385 324.7 860.879 311.507C864.653 291.55 854.311 278.838 844.092 263.497Z" fill="url(#paint0_linear_331_945)"/>
<path d="M648.74 906.264C655.046 902.825 661.472 899.82 667.55 895.945C673.741 892 679.179 886.971 685.157 882.72C700.056 872.128 715.199 861.741 730.338 851.493C764.354 828.465 797.673 804.653 831.19 780.913C859.301 761.002 887.399 742.389 913.242 719.459C913.578 759.602 912.667 799.8 912.665 839.959C912.663 859.167 912.722 878.377 912.752 897.585C912.767 908.167 913.293 919.011 912.493 929.546C908.816 978.008 886.125 1028.73 851.943 1063.24C837.727 1077.59 819.691 1088.61 803.321 1100.36C773.048 1122.08 742.56 1143.5 712.049 1164.89C695.143 1176.75 678.452 1188.93 661.544 1200.79C650.051 1208.86 638.342 1217.82 625.506 1223.56C629.029 1216.97 635.069 1211.44 638.927 1204.75C652.94 1180.45 649.958 1154.5 649.76 1127.55C649.806 1080.63 649.309 1033.7 649.158 986.778C649.114 973.389 649.082 960.003 649.02 946.617C648.987 939.542 649.674 931.548 648.283 924.653L648.874 924.374L648.74 906.264Z" fill="#256B76"/>
<path d="M648.875 924.374C658.087 922.252 666.885 918.189 675.113 913.574C690.348 905.032 704.902 894.375 719.403 884.614C740.513 870.402 761.749 856.359 782.989 842.342C797.901 832.502 813.243 823.351 828.174 813.557C835.31 808.874 843.245 804.224 849.654 798.591C849.718 821.201 849.771 843.811 849.802 866.421C849.824 882.385 850.626 899.058 848.278 914.864C842.222 955.634 820.074 996.27 791.044 1025.26C771.867 1044.41 748.035 1058.68 726.007 1074.25C700.677 1092.16 675.743 1110.59 649.761 1127.55C649.807 1080.63 649.31 1033.7 649.158 986.778C649.114 973.39 649.083 960.003 649.021 946.617C648.987 939.542 649.675 931.548 648.284 924.653L648.875 924.374Z" fill="#2B9F8F"/>
<path d="M235.434 812.821C286.687 834.476 338.735 854.329 390.326 875.165C415.282 885.243 440.259 895.328 465.386 904.97C484.959 912.483 505.782 921.211 526.594 924.385C569.143 930.14 609.555 923.402 648.742 906.264L648.876 924.374L648.286 924.653C649.676 931.548 648.989 939.542 649.022 946.617C649.084 960.003 649.116 973.39 649.16 986.778C649.312 1033.7 649.808 1080.63 649.763 1127.55L644.525 1131.37C629.544 1141.87 614.29 1152.53 598.134 1161.15C566.762 1177.86 525.985 1188.99 490.468 1182.37C475.474 1179.58 461.727 1174.1 447.589 1168.59C429.431 1161.5 411.454 1154.03 393.511 1146.42C368.821 1135.95 343.839 1126.11 319.093 1115.76C303.451 1109.22 286.312 1104.53 271.495 1096.35C257.96 1088.88 246.47 1079.5 235.901 1068.22C225.912 1057.57 217.161 1042.44 211.927 1028.83C209.973 1023.75 208.152 1018.55 206.407 1013.4C205.519 1010.77 205.288 1007.47 203.506 1005.29L202.715 1004.54C201.656 997.991 202.139 990.875 202.075 984.216C201.948 970.789 201.947 957.364 201.996 943.937C202.153 901.252 202.398 858.571 202.375 815.886L234.863 827.987C236.155 823.778 235.427 817.317 235.434 812.821Z" fill="#57D2AE"/>
<path d="M526.593 924.384C569.141 930.139 609.554 923.401 648.741 906.263L648.875 924.373L648.284 924.652C620.866 934.222 592.782 942.127 563.569 942.93C550.994 943.276 538.847 941.926 526.433 940.123L526.593 924.384Z" fill="#2B9F8F"/>
<path d="M236.615 828.697C267.156 841.285 297.958 853.165 328.615 865.452C363.617 879.477 398.377 893.893 433.593 907.394C448.341 913.046 463.158 918.519 477.904 924.177C493.891 930.311 509.173 936.46 525.951 940.181C525.616 970.244 525.953 1000.33 525.993 1030.4C526.006 1039.89 526.02 1049.39 526.013 1058.88C526.006 1066.44 526.231 1074.5 524.367 1081.86L523.953 1083.39C519.642 1100 511.224 1114.01 497.039 1123.99C483.211 1133.71 465.687 1134.9 449.547 1131.7C437.566 1129.33 425.934 1123.97 414.76 1119.17C402.681 1113.97 390.557 1108.84 378.405 1103.81C363.599 1097.69 348.885 1091.33 334.038 1085.31C318.513 1079.02 302.374 1073.63 288.22 1064.51C275.792 1056.51 264.773 1045.06 256.583 1032.78C248.326 1020.4 241.952 1007.18 238.399 992.678C237.049 987.168 236.046 981.666 235.751 975.992C233.864 939.708 235.581 902.742 235.545 866.363C235.538 859.817 233.866 833.221 236.615 828.697Z" fill="#A5EFD0"/>
<path d="M202.245 774.404C201.832 690.332 202.082 606.264 201.797 522.195C201.711 497.348 201.571 472.502 201.453 447.655C201.386 433.695 200.255 418.768 202.022 404.931C204.677 384.154 211.466 364.257 221.476 345.892L221.45 346.856C221.284 351.289 219.953 355.008 219.273 359.3C218.128 366.525 219.125 374.564 220.614 381.677L220.942 383.326C224.511 400.705 235.103 413.924 249.802 423.405C263.11 431.992 279.218 437.085 293.823 443.154C317.135 452.842 340.342 462.729 363.708 472.295C388.026 482.25 412.272 492.471 436.551 502.533C452.518 509.151 468.556 516.287 485.07 521.406C499.48 525.874 513.26 526.716 528.031 528.766L525.705 529.962L525.539 901.254C517.881 898.774 510.098 896.934 502.453 894.293C457.328 878.704 413.03 859.711 368.825 841.684C313.377 819.072 257.653 797.129 202.245 774.404Z" fill="#57D2AE"/>
<path d="M475.011 747.17C475.266 756.621 475.511 769.156 468.74 776.562C464.676 781.01 460.605 782.77 454.593 782.876C441.603 783.106 428.39 775.997 416.696 771.028L416.486 751.463C426.717 756.706 442.674 764.847 454.179 762.918C463.783 761.306 469.563 754.603 475.011 747.17Z" fill="#256B76"/>
<path d="M337.673 776.949C349.062 785.959 378.924 801.015 393.008 798.844C402.736 797.345 408.337 790.169 413.471 782.586L414.587 780.898L414.502 791.728C413.782 800.761 412.167 807.279 404.716 813.249C400.62 816.531 396.279 818.296 390.993 817.676C385.451 817.025 379.599 814.631 374.342 812.823C363.071 808.947 349.265 804.989 341.822 795.114C337.583 789.491 336.685 783.897 337.673 776.949Z" fill="#256B76"/>
<path d="M325.194 618.139C325.217 604.917 322.635 587.875 332.336 577.488C336.78 572.728 346.026 568.97 352.498 569.037C357.656 569.09 364.39 572.663 369.138 574.621C382.134 579.984 396.711 584.62 405.682 596.17C419.508 613.971 416.431 634.223 416.338 655.408C438.516 666.424 464.979 670.505 474.254 696.393C476.48 702.604 475.863 710.136 475.92 716.654C476.01 726.81 476.418 737.087 475.009 747.169C469.561 754.603 463.78 761.305 454.177 762.917C442.672 764.847 426.715 756.705 416.484 751.462L416.694 771.027L414.588 780.899L413.472 782.586C408.338 790.17 402.737 797.346 393.009 798.845C378.925 801.016 349.063 785.96 337.674 776.95C325.571 764.065 324.165 746.998 324.154 730.312L308.92 724.716C295.769 719.48 283.099 708.383 277.318 695.179C267.006 681.032 265.776 669.511 265.827 652.474C265.845 646.78 265.612 640.691 266.606 635.074C268.175 626.196 272.184 619.181 279.71 614.003C286.433 609.376 293.409 607.475 301.534 609.164C309.565 610.836 317.656 614.942 325.194 618.139Z" fill="#3D1758"/>
<path d="M277.317 695.179C291.658 704.949 308.426 710.451 324.656 716.312L324.154 730.313L308.919 724.717C295.768 719.481 283.098 708.384 277.317 695.179Z" fill="#2B9F8F"/>
<path d="M349.646 588.119L352.04 588.701C358.802 590.691 365.492 593.949 372.133 596.4C376.858 598.144 383.8 599.858 387.785 602.808C401.842 613.211 397.595 638.596 397.358 653.873C397.284 658.745 396.685 663.66 399.995 667.647C403.515 671.889 408.825 673.526 413.761 675.552C422.311 679.064 430.904 682.52 439.242 686.517C443.245 688.436 448.056 690.468 451.274 693.546C453.648 695.82 455.201 698.713 456.761 701.571C456.861 710.691 459.633 734.966 453.384 741.239C452.577 742.05 449.945 743.902 448.8 744.006C444.214 744.422 438.714 741.744 434.63 739.94C425.321 735.827 413.19 728.542 403.187 727.971C400.855 728.921 398.902 729.221 397.669 731.649C396.486 733.972 396.95 737.456 396.955 740.018C396.969 747.416 397.011 754.816 397.009 762.215C397.009 765.283 397.477 769.313 396.414 772.178C395.804 773.829 394.502 775.363 393.404 776.713L392.729 777.516L387.968 779.39C383.596 779.081 379.299 777.003 375.208 775.46C367.175 772.431 358.247 770.132 351.825 764.16C336.217 749.648 346.238 727.232 343.992 709.141C343.857 708.048 343.205 706.369 342.507 705.527C339.944 702.435 334.71 700.722 331.077 699.163C323.325 695.834 315.515 692.648 307.718 689.428C303.009 687.482 297.5 685.629 293.476 682.471C289.391 679.263 286.34 673.754 286.012 668.539C285.501 660.411 285.961 651.873 286.131 643.719C286.187 641.027 285.942 636.259 287.308 633.81C287.888 632.769 289.16 631.619 289.951 630.684C291.134 630.237 293.175 629.12 294.358 629.023C297.884 628.733 303.309 631.136 306.585 632.447C315.949 636.193 326.014 641.805 335.714 644.266C338.763 645.039 339.673 644.441 342.355 642.93C344.928 638.315 344.148 633.455 344.081 628.228C343.977 620.007 343.859 611.784 343.925 603.563C343.95 600.566 343.508 596.4 344.158 593.513C344.784 590.73 347.486 589.617 349.646 588.119Z" fill="#FEFEFD"/>
<path d="M221.471 345.894C227.757 333.456 235.18 321.703 244.207 311.075C250.455 303.718 257.168 296.914 264.687 290.852C288.717 271.474 315.441 254.921 340.326 236.613C360.379 221.86 380.469 207.145 400.504 192.366C414.106 182.33 427.19 171.118 442.333 163.489C465.341 151.898 488.893 145.873 514.552 143.786C537.246 141.94 559.791 143.924 581.76 150C601.754 155.529 620.838 163.8 639.941 171.798C672.896 185.598 705.349 200.541 738.195 214.587C765.809 226.395 795.314 235.187 822.201 248.423C830.421 252.469 837.145 257.574 844.089 263.499C854.307 278.839 864.649 291.551 860.875 311.508C858.382 324.702 851.071 337.673 841.588 347.088C832.961 355.651 821.656 362.388 811.718 369.385C795.047 381.125 778.371 392.869 761.852 404.82C731.731 426.618 701.98 448.948 672.001 470.943C657.864 481.314 644.047 492.12 629.454 501.856C598.957 522.202 564.428 530.434 528.025 528.768C513.255 526.718 499.474 525.876 485.065 521.408C468.551 516.289 452.513 509.153 436.545 502.535C412.266 492.473 388.021 482.252 363.703 472.297C340.337 462.731 317.129 452.844 293.818 443.156C279.213 437.086 263.104 431.994 249.796 423.407C235.098 413.926 224.505 400.707 220.937 383.328L220.609 381.679C219.119 374.566 218.122 366.527 219.268 359.302C219.948 355.01 221.278 351.291 221.444 346.858L221.471 345.894Z" fill="#FEFEFD"/>
<path d="M524.983 198.431C533.758 198.368 542.072 199.431 550.411 202.179C571.324 209.069 591.61 219.4 612.052 227.698C640.774 239.358 669.68 250.548 698.423 262.148C709.801 266.742 721.221 271.229 732.513 276.031C740.79 279.549 749.309 282.877 756.302 288.7C761.824 293.299 766.124 300.233 766.535 307.534C766.991 315.605 763.119 321.978 757.756 327.638C746.835 339.162 730.945 348.258 717.857 357.383C696.69 372.139 675.531 387.021 654.562 402.058C640.413 412.203 626.035 422.115 612.05 432.479C600.209 441.254 588.578 451.797 575.448 458.491C563.18 464.747 548.882 466.597 535.313 466.834C524.821 466.467 514.714 464.904 504.721 461.589C486.473 455.538 468.574 447.082 450.863 439.618C419.982 426.604 389.101 413.601 358.229 400.566C347.347 395.971 336.352 391.63 325.331 387.383C317.302 384.288 307.901 381.333 300.897 376.187C295.679 372.355 291.239 366.609 290.48 360.006C289.741 353.581 291.632 348.096 295.88 343.282C299.621 339.04 305.337 335.723 309.956 332.512C318.696 326.441 327.425 320.363 336.209 314.359C363.683 295.583 391.129 276.765 418.597 257.979C433.538 247.759 448.41 237.39 463.267 227.042C472.692 220.477 482.142 213.325 492.248 207.853C502.994 202.036 512.83 199.388 524.983 198.431Z" fill="#3D1758"/>
<path d="M348.667 377.622C340.875 374.442 333.048 371.348 325.274 368.124C321.113 366.4 315.706 364.548 312.287 361.547C310.634 360.097 310.516 359.036 310.401 356.948C313.9 352.5 319.407 349.483 324.076 346.339C331.665 341.225 339.284 336.156 346.855 331.018C370.752 314.8 394.703 298.603 418.483 282.219C437.288 269.264 456.062 256.225 474.77 243.134C482.738 237.557 490.402 231.479 498.527 226.135C502.186 223.729 506.053 221.367 510.155 219.805C530.314 212.133 545.002 221.053 563.033 229.006C551.934 238.78 539.172 247.233 527.186 255.92C499.045 276.321 470.357 295.71 441.668 315.308C420.545 329.736 399.62 344.324 378.302 358.477C368.462 365.008 359.086 372.013 348.667 377.622Z" fill="#80E4EF"/>
<path d="M563.031 229.004C604.249 246.195 645.736 262.628 687.148 279.344C703.859 286.089 722.259 291.554 738.246 299.74C741.908 301.613 744.032 303.405 745.852 307.093C745.882 311.096 745.859 313.019 742.868 316.075C733.26 325.893 718.286 333.825 706.957 341.68C681.688 359.203 656.337 376.845 631.387 394.821C618.114 404.382 604.961 414.042 591.949 423.959C584.651 429.522 577.365 436.41 569.297 440.73C558.521 446.502 544.02 448.282 531.978 447.975C525.864 447.819 520.021 446.476 514.221 444.608C491.045 437.146 468.146 426.002 445.487 416.941C424.015 408.356 402.607 399.655 381.196 390.924C370.419 386.53 359.158 382.581 348.665 377.62C359.084 372.012 368.461 365.007 378.3 358.475C399.618 344.323 420.543 329.735 441.666 315.307C470.355 295.708 499.043 276.32 527.184 255.918C539.17 247.231 551.932 238.779 563.031 229.004Z" fill="#1DCFDF"/>
<path d="M601.902 277.82C612.192 277.202 623.319 279.645 632.258 284.809C640.495 289.566 644.261 295.357 646.764 304.36C645.992 308.261 644.959 311.792 642.557 315.038C635.391 324.724 621.444 327.688 610.178 329.084C599.131 330.124 586.274 327.886 577.184 321.344C571.789 317.462 566.29 311.844 565.434 304.93C564.909 300.691 566.319 296.027 568.98 292.687C577.032 282.583 589.69 279.317 601.902 277.82Z" fill="#FEFEFD"/>
<defs>
<linearGradient id="paint0_linear_331_945" x1="482.737" y1="623.353" x2="928.818" y2="552.413" gradientUnits="userSpaceOnUse">
<stop stop-color="#299787"/>
<stop offset="1" stop-color="#3EC1A4"/>
</linearGradient>
</defs>
</svg>
